<svg width="24" height="24" viewBox="0 0 24 24" fill="none" xmlns="http://www.w3.org/2000/svg">
<g clip-path="url(#clip0_2_22)">
<path d="M12 22C6.47715 22 2 17.5228 2 12C2 6.47715 6.47715 2 12 2C17.5228 2 22 6.47715 22 12C22 17.5228 17.5228 22 12 22ZM12 20C16.4183 20 20 16.4183 20 12C20 7.58172 16.4183 4 12 4C7.58172 4 4 7.58172 4 12C4 16.4183 7.58172 20 12 20Z" fill="#779C70" fill-opacity="0.76"/>
<path d="M10.3331 15.6424L17.9934 7.9821L19.1719 9.16061L10.3331 17.9994L5.02979 12.6962L6.2083 11.5177L10.3331 15.6424Z" fill="#779C70" fill-opacity="0.76"/>
</g>
<defs>
<clipPath id="clip0_2_22">
<rect width="24" height="24" fill="white"/>
</clipPath>
</defs>
</svg>
